<svg xmlns="http://www.w3.org/2000/svg" viewBox="0 0 800 500" width="800" height="500" role="img" aria-label="Phối cảnh minh họa dự án An Phú Garden City">
<defs>
<linearGradient id="sky" x1="0" y1="0" x2="0" y2="1">
<stop offset="0%" stop-color="#3a1f52"/>
<stop offset="55%" stop-color="#8e4a7d"/>
<stop offset="100%" stop-color="#f0a98c"/>
</linearGradient>
<radialGradient id="glow" cx="50%" cy="50%" r="50%">
<stop offset="0%" stop-color="#ffd0a1" stop-opacity="0.75"/>
<stop offset="100%" stop-color="#ffd0a1" stop-opacity="0"/>
</radialGradient>
<linearGradient id="water" x1="0" y1="0" x2="0" y2="1">
<stop offset="0%" stop-color="#6b3b6a"/>
<stop offset="100%" stop-color="#33203f"/>
</linearGradient>
<radialGradient id="vignette" cx="50%" cy="45%" r="75%">
<stop offset="60%" stop-color="#000" stop-opacity="0"/>
<stop offset="100%" stop-color="#000" stop-opacity="0.4"/>
</radialGradient>
</defs>
<rect width="800" height="500" fill="url(#sky)"/>
<circle cx="449.4" cy="112.1" r="150" fill="url(#glow)"/>
<circle cx="449.4" cy="112.1" r="30" fill="#ffd0a1" opacity="0.9"/>
<ellipse cx="220.2" cy="76.2" rx="61.2" ry="20.5" fill="#fff" opacity="0.3"/><ellipse cx="797.7" cy="69.2" rx="80.5" ry="17.5" fill="#fff" opacity="0.2"/><ellipse cx="145.3" cy="48.2" rx="58.7" ry="10.9" fill="#fff" opacity="0.2"/><ellipse cx="160.1" cy="107.3" rx="70.7" ry="14.9" fill="#fff" opacity="0.1"/><ellipse cx="638.7" cy="85.8" rx="57.9" ry="12.1" fill="#fff" opacity="0.3"/>
<polygon points="0,500 0,305.4 80,267.8 160,266.1 240,274.6 320,274.7 400,297.7 480,315.6 560,264.7 640,299.3 720,302.5 800,282.2 800,500" fill="#5b3160" opacity="0.85"/>
<rect x="-10" y="276.9" width="96.1" height="73.1" fill="#241531"/><polygon points="-16,276.9 38.1,239.4 92.1,276.9" fill="#33203f"/><rect x="2" y="290.9" width="10" height="12" fill="#ffd0a1" opacity="0.4"/><rect x="28" y="290.9" width="10" height="12" fill="#ffd0a1" opacity="0.7"/><rect x="54" y="290.9" width="10" height="12" fill="#ffd0a1" opacity="0.6"/><rect x="124" y="284.6" width="91" height="65.4" fill="#241531"/><polygon points="118,284.6 169.5,255 221,284.6" fill="#33203f"/><rect x="136" y="298.6" width="10" height="12" fill="#ffd0a1" opacity="0.5"/><rect x="162" y="298.6" width="10" height="12" fill="#ffd0a1" opacity="0.5"/><rect x="188" y="298.6" width="10" height="12" fill="#ffd0a1" opacity="0.5"/><rect x="251.5" y="284.1" width="115.1" height="65.9" fill="#241531"/><polygon points="245.5,284.1 309.1,255.7 372.6,284.1" fill="#33203f"/><rect x="263.5" y="298.1" width="10" height="12" fill="#ffd0a1" opacity="0.4"/><rect x="289.5" y="298.1" width="10" height="12" fill="#ffd0a1" opacity="0.4"/><rect x="315.5" y="298.1" width="10" height="12" fill="#ffd0a1" opacity="0.7"/><rect x="341.5" y="298.1" width="10" height="12" fill="#ffd0a1" opacity="0.6"/><rect x="386.8" y="291.3" width="102.4" height="58.7" fill="#241531"/><polygon points="380.8,291.3 438,266 495.2,291.3" fill="#33203f"/><rect x="398.8" y="305.3" width="10" height="12" fill="#ffd0a1" opacity="0.5"/><rect x="424.8" y="305.3" width="10" height="12" fill="#ffd0a1" opacity="0.6"/><rect x="450.8" y="305.3" width="10" height="12" fill="#ffd0a1" opacity="0.6"/><rect x="523" y="298.6" width="109.4" height="51.4" fill="#241531"/><polygon points="517,298.6 577.7,274.2 638.4,298.6" fill="#33203f"/><rect x="535" y="312.6" width="10" height="12" fill="#ffd0a1" opacity="0.4"/><rect x="561" y="312.6" width="10" height="12" fill="#ffd0a1" opacity="0.6"/><rect x="587" y="312.6" width="10" height="12" fill="#ffd0a1" opacity="0.6"/><rect x="613" y="312.6" width="10" height="12" fill="#ffd0a1" opacity="0.6"/><rect x="660.8" y="277.1" width="91.7" height="72.9" fill="#241531"/><polygon points="654.8,277.1 706.7,243.2 758.5,277.1" fill="#33203f"/><rect x="672.8" y="291.1" width="10" height="12" fill="#ffd0a1" opacity="0.4"/><rect x="698.8" y="291.1" width="10" height="12" fill="#ffd0a1" opacity="0.6"/><rect x="724.8" y="291.1" width="10" height="12" fill="#ffd0a1" opacity="0.7"/><rect x="783.8" y="295.1" width="122.9" height="54.9" fill="#241531"/><polygon points="777.8,295.1 845.3,266.9 912.7,295.1" fill="#33203f"/><rect x="795.8" y="309.1" width="10" height="12" fill="#ffd0a1" opacity="0.6"/><rect x="821.8" y="309.1" width="10" height="12" fill="#ffd0a1" opacity="0.8"/><rect x="847.8" y="309.1" width="10" height="12" fill="#ffd0a1" opacity="0.5"/><rect x="873.8" y="309.1" width="10" height="12" fill="#ffd0a1" opacity="0.7"/>
<rect x="0" y="400" width="800" height="100" fill="url(#water)"/>
<rect x="0" y="400" width="800" height="2" fill="#fff" opacity="0.18"/>
<rect x="656.8" y="339.4" width="4" height="31.2" fill="#241531" opacity="0.9"/><circle cx="658.8" cy="326.4" r="21.6" fill="#4a5f3a" opacity="0.95"/><rect x="763.4" y="352.2" width="4" height="20.8" fill="#241531" opacity="0.9"/><circle cx="765.4" cy="343.6" r="14.4" fill="#4a5f3a" opacity="0.95"/><rect x="317.8" y="338" width="4" height="31.2" fill="#241531" opacity="0.9"/><circle cx="319.8" cy="325" r="21.6" fill="#4a5f3a" opacity="0.95"/><rect x="300.8" y="349.8" width="4" height="20.8" fill="#241531" opacity="0.9"/><circle cx="302.8" cy="341.2" r="14.4" fill="#4a5f3a" opacity="0.95"/><rect x="660.9" y="337.1" width="4" height="20.8" fill="#241531" opacity="0.9"/><circle cx="662.9" cy="328.5" r="14.4" fill="#4a5f3a" opacity="0.95"/><rect x="289.9" y="353.4" width="4" height="20.8" fill="#241531" opacity="0.9"/><circle cx="291.9" cy="344.8" r="14.4" fill="#4a5f3a" opacity="0.95"/><rect x="577.5" y="325.8" width="4" height="33.8" fill="#241531" opacity="0.9"/><circle cx="579.5" cy="311.8" r="23.4" fill="#4a5f3a" opacity="0.95"/><rect x="720.1" y="350.7" width="4" height="20.8" fill="#241531" opacity="0.9"/><circle cx="722.1" cy="342.1" r="14.4" fill="#4a5f3a" opacity="0.95"/><rect x="435.5" y="346.5" width="4" height="31.2" fill="#241531" opacity="0.9"/><circle cx="437.5" cy="333.5" r="21.6" fill="#4a5f3a" opacity="0.95"/>
<rect width="800" height="500" fill="url(#vignette)"/>
</svg>