<svg xmlns="http://www.w3.org/2000/svg" viewBox="0 0 800 500" width="800" height="500" role="img" aria-label="Phối cảnh minh họa dự án Sunrise Bay Đà Nẵng">
<defs>
<linearGradient id="sky" x1="0" y1="0" x2="0" y2="1">
<stop offset="0%" stop-color="#2a1440"/>
<stop offset="55%" stop-color="#4f4fb0"/>
<stop offset="100%" stop-color="#a8b6ef"/>
</linearGradient>
<radialGradient id="glow" cx="50%" cy="50%" r="50%">
<stop offset="0%" stop-color="#e6e2ff" stop-opacity="0.75"/>
<stop offset="100%" stop-color="#e6e2ff" stop-opacity="0"/>
</radialGradient>
<linearGradient id="water" x1="0" y1="0" x2="0" y2="1">
<stop offset="0%" stop-color="#3f4a9c"/>
<stop offset="100%" stop-color="#241a45"/>
</linearGradient>
<radialGradient id="vignette" cx="50%" cy="45%" r="75%">
<stop offset="60%" stop-color="#000" stop-opacity="0"/>
<stop offset="100%" stop-color="#000" stop-opacity="0.4"/>
</radialGradient>
</defs>
<rect width="800" height="500" fill="url(#sky)"/>
<circle cx="453" cy="93.3" r="150" fill="url(#glow)"/>
<circle cx="453" cy="93.3" r="30" fill="#e6e2ff" opacity="0.9"/>
<ellipse cx="582.8" cy="146.1" rx="91.8" ry="10.7" fill="#fff" opacity="0.1"/><ellipse cx="107.6" cy="109.9" rx="97.6" ry="12.8" fill="#fff" opacity="0.2"/><ellipse cx="171.8" cy="55.4" rx="69" ry="14.4" fill="#fff" opacity="0.1"/><ellipse cx="293.7" cy="56.1" rx="86.1" ry="14.4" fill="#fff" opacity="0.2"/><ellipse cx="578.4" cy="50.8" rx="68.8" ry="13.8" fill="#fff" opacity="0.1"/>
<polygon points="0,500 0,307.9 80,326.5 160,315.6 240,316.3 320,290.7 400,260 480,279.5 560,288.7 640,268.2 720,309.2 800,274.5 800,500" fill="#3a2f6b" opacity="0.85"/>
<rect x="-10" y="278.9" width="126.4" height="71.1" fill="#191233"/><polygon points="-16,278.9 53.2,250.5 122.4,278.9" fill="#241a45"/><rect x="2" y="292.9" width="10" height="12" fill="#e6e2ff" opacity="0.7"/><rect x="28" y="292.9" width="10" height="12" fill="#e6e2ff" opacity="0.8"/><rect x="54" y="292.9" width="10" height="12" fill="#e6e2ff" opacity="0.5"/><rect x="80" y="292.9" width="10" height="12" fill="#e6e2ff" opacity="0.7"/><rect x="149.5" y="272.2" width="129.5" height="77.8" fill="#191233"/><polygon points="143.5,272.2 214.3,245 285,272.2" fill="#241a45"/><rect x="161.5" y="286.2" width="10" height="12" fill="#e6e2ff" opacity="0.4"/><rect x="187.5" y="286.2" width="10" height="12" fill="#e6e2ff" opacity="0.8"/><rect x="213.5" y="286.2" width="10" height="12" fill="#e6e2ff" opacity="0.4"/><rect x="239.5" y="286.2" width="10" height="12" fill="#e6e2ff" opacity="0.7"/><rect x="307.9" y="273.5" width="129.5" height="76.5" fill="#191233"/><polygon points="301.9,273.5 372.7,247.8 443.4,273.5" fill="#241a45"/><rect x="319.9" y="287.5" width="10" height="12" fill="#e6e2ff" opacity="0.5"/><rect x="345.9" y="287.5" width="10" height="12" fill="#e6e2ff" opacity="0.4"/><rect x="371.9" y="287.5" width="10" height="12" fill="#e6e2ff" opacity="0.7"/><rect x="397.9" y="287.5" width="10" height="12" fill="#e6e2ff" opacity="0.5"/><rect x="468.5" y="295.9" width="72.1" height="54.1" fill="#191233"/><polygon points="462.5,295.9 504.6,269.9 546.6,295.9" fill="#241a45"/><rect x="480.5" y="309.9" width="10" height="12" fill="#e6e2ff" opacity="0.6"/><rect x="506.5" y="309.9" width="10" height="12" fill="#e6e2ff" opacity="0.6"/><rect x="570.7" y="288.4" width="122" height="61.6" fill="#191233"/><polygon points="564.7,288.4 631.7,261 698.7,288.4" fill="#241a45"/><rect x="582.7" y="302.4" width="10" height="12" fill="#e6e2ff" opacity="0.7"/><rect x="608.7" y="302.4" width="10" height="12" fill="#e6e2ff" opacity="0.5"/><rect x="634.7" y="302.4" width="10" height="12" fill="#e6e2ff" opacity="0.7"/><rect x="660.7" y="302.4" width="10" height="12" fill="#e6e2ff" opacity="0.7"/><rect x="728.8" y="297.6" width="78.8" height="52.4" fill="#191233"/><polygon points="722.8,297.6 768.2,271.4 813.6,297.6" fill="#241a45"/><rect x="740.8" y="311.6" width="10" height="12" fill="#e6e2ff" opacity="0.8"/><rect x="766.8" y="311.6" width="10" height="12" fill="#e6e2ff" opacity="0.7"/><rect x="792.8" y="311.6" width="10" height="12" fill="#e6e2ff" opacity="0.6"/>
<rect x="0" y="400" width="800" height="100" fill="url(#water)"/>
<rect x="0" y="400" width="800" height="2" fill="#fff" opacity="0.18"/>
<rect x="100.1" y="352.7" width="4" height="28.6" fill="#191233" opacity="0.9"/><circle cx="102.1" cy="340.8" r="19.8" fill="#3a5f7a" opacity="0.95"/><rect x="735" y="346.1" width="4" height="31.2" fill="#191233" opacity="0.9"/><circle cx="737" cy="333.1" r="21.6" fill="#3a5f7a" opacity="0.95"/><rect x="463.9" y="324.4" width="4" height="36.4" fill="#191233" opacity="0.9"/><circle cx="465.9" cy="309.3" r="25.2" fill="#3a5f7a" opacity="0.95"/><rect x="158.3" y="334.8" width="4" height="36.4" fill="#191233" opacity="0.9"/><circle cx="160.3" cy="319.7" r="25.2" fill="#3a5f7a" opacity="0.95"/><rect x="411.5" y="355.6" width="4" height="26" fill="#191233" opacity="0.9"/><circle cx="413.5" cy="344.8" r="18" fill="#3a5f7a" opacity="0.95"/><rect x="520.9" y="337.8" width="4" height="33.8" fill="#191233" opacity="0.9"/><circle cx="522.9" cy="323.8" r="23.4" fill="#3a5f7a" opacity="0.95"/><rect x="376.5" y="351.5" width="4" height="31.2" fill="#191233" opacity="0.9"/><circle cx="378.5" cy="338.5" r="21.6" fill="#3a5f7a" opacity="0.95"/><rect x="706.8" y="356.2" width="4" height="20.8" fill="#191233" opacity="0.9"/><circle cx="708.8" cy="347.6" r="14.4" fill="#3a5f7a" opacity="0.95"/><rect x="416.1" y="329.5" width="4" height="36.4" fill="#191233" opacity="0.9"/><circle cx="418.1" cy="314.4" r="25.2" fill="#3a5f7a" opacity="0.95"/>
<rect width="800" height="500" fill="url(#vignette)"/>
</svg>