<svg xmlns="http://www.w3.org/2000/svg" viewBox="0 0 800 500" width="800" height="500" role="img" aria-label="Phối cảnh minh họa dự án Vạn Xuân Marina">
<defs>
<linearGradient id="sky" x1="0" y1="0" x2="0" y2="1">
<stop offset="0%" stop-color="#2a1440"/>
<stop offset="55%" stop-color="#4f4fb0"/>
<stop offset="100%" stop-color="#a8b6ef"/>
</linearGradient>
<radialGradient id="glow" cx="50%" cy="50%" r="50%">
<stop offset="0%" stop-color="#e6e2ff" stop-opacity="0.75"/>
<stop offset="100%" stop-color="#e6e2ff" stop-opacity="0"/>
</radialGradient>
<linearGradient id="water" x1="0" y1="0" x2="0" y2="1">
<stop offset="0%" stop-color="#3f4a9c"/>
<stop offset="100%" stop-color="#241a45"/>
</linearGradient>
<radialGradient id="vignette" cx="50%" cy="45%" r="75%">
<stop offset="60%" stop-color="#000" stop-opacity="0"/>
<stop offset="100%" stop-color="#000" stop-opacity="0.4"/>
</radialGradient>
</defs>
<rect width="800" height="500" fill="url(#sky)"/>
<circle cx="565.6" cy="147" r="150" fill="url(#glow)"/>
<circle cx="565.6" cy="147" r="30" fill="#e6e2ff" opacity="0.9"/>
<ellipse cx="331.3" cy="111.8" rx="109.2" ry="11.4" fill="#fff" opacity="0.1"/><ellipse cx="62.9" cy="42.2" rx="79.1" ry="13.7" fill="#fff" opacity="0.3"/><ellipse cx="727.7" cy="106.9" rx="110.9" ry="18.8" fill="#fff" opacity="0.3"/><ellipse cx="37.3" cy="50.1" rx="115.1" ry="10.6" fill="#fff" opacity="0.2"/><ellipse cx="740" cy="155.2" rx="76.5" ry="16.8" fill="#fff" opacity="0.3"/>
<polygon points="0,500 0,301 80,268.3 160,276.2 240,306.6 320,316.8 400,321 480,312.7 560,303.1 640,328.4 720,301 800,294.2 800,500" fill="#3a2f6b" opacity="0.85"/>
<rect x="-10" y="303.1" width="74.8" height="46.9" fill="#191233"/><polygon points="-16,303.1 27.4,276.6 70.8,303.1" fill="#241a45"/><rect x="2" y="317.1" width="10" height="12" fill="#e6e2ff" opacity="0.7"/><rect x="28" y="317.1" width="10" height="12" fill="#e6e2ff" opacity="0.4"/><rect x="98.9" y="278.4" width="117.6" height="71.6" fill="#191233"/><polygon points="92.9,278.4 157.7,252.4 222.5,278.4" fill="#241a45"/><rect x="110.9" y="292.4" width="10" height="12" fill="#e6e2ff" opacity="0.4"/><rect x="136.9" y="292.4" width="10" height="12" fill="#e6e2ff" opacity="0.7"/><rect x="162.9" y="292.4" width="10" height="12" fill="#e6e2ff" opacity="0.7"/><rect x="188.9" y="292.4" width="10" height="12" fill="#e6e2ff" opacity="0.7"/><rect x="236.2" y="274.4" width="74.9" height="75.6" fill="#191233"/><polygon points="230.2,274.4 273.7,236.9 317.1,274.4" fill="#241a45"/><rect x="248.2" y="288.4" width="10" height="12" fill="#e6e2ff" opacity="0.5"/><rect x="274.2" y="288.4" width="10" height="12" fill="#e6e2ff" opacity="0.6"/><rect x="341.3" y="290.7" width="90.6" height="59.3" fill="#191233"/><polygon points="335.3,290.7 386.6,267.1 437.9,290.7" fill="#241a45"/><rect x="353.3" y="304.7" width="10" height="12" fill="#e6e2ff" opacity="0.4"/><rect x="379.3" y="304.7" width="10" height="12" fill="#e6e2ff" opacity="0.7"/><rect x="405.3" y="304.7" width="10" height="12" fill="#e6e2ff" opacity="0.7"/><rect x="465.1" y="287.1" width="97" height="62.9" fill="#191233"/><polygon points="459.1,287.1 513.6,252.1 568.1,287.1" fill="#241a45"/><rect x="477.1" y="301.1" width="10" height="12" fill="#e6e2ff" opacity="0.4"/><rect x="503.1" y="301.1" width="10" height="12" fill="#e6e2ff" opacity="0.7"/><rect x="529.1" y="301.1" width="10" height="12" fill="#e6e2ff" opacity="0.5"/><rect x="601.9" y="276.5" width="77.7" height="73.5" fill="#191233"/><polygon points="595.9,276.5 640.8,241.4 685.6,276.5" fill="#241a45"/><rect x="613.9" y="290.5" width="10" height="12" fill="#e6e2ff" opacity="0.7"/><rect x="639.9" y="290.5" width="10" height="12" fill="#e6e2ff" opacity="0.5"/><rect x="706.3" y="274.9" width="126.2" height="75.1" fill="#191233"/><polygon points="700.3,274.9 769.4,238.6 838.5,274.9" fill="#241a45"/><rect x="718.3" y="288.9" width="10" height="12" fill="#e6e2ff" opacity="0.6"/><rect x="744.3" y="288.9" width="10" height="12" fill="#e6e2ff" opacity="0.6"/><rect x="770.3" y="288.9" width="10" height="12" fill="#e6e2ff" opacity="0.7"/><rect x="796.3" y="288.9" width="10" height="12" fill="#e6e2ff" opacity="0.6"/>
<rect x="0" y="400" width="800" height="100" fill="url(#water)"/>
<rect x="0" y="400" width="800" height="2" fill="#fff" opacity="0.18"/>
<rect x="539.4" y="353.2" width="4" height="26" fill="#191233" opacity="0.9"/><circle cx="541.4" cy="342.4" r="18" fill="#3a5f7a" opacity="0.95"/><rect x="160" y="325.8" width="4" height="31.2" fill="#191233" opacity="0.9"/><circle cx="162" cy="312.8" r="21.6" fill="#3a5f7a" opacity="0.95"/><rect x="493.8" y="346.8" width="4" height="23.4" fill="#191233" opacity="0.9"/><circle cx="495.8" cy="337.1" r="16.2" fill="#3a5f7a" opacity="0.95"/><rect x="111.3" y="355.8" width="4" height="20.8" fill="#191233" opacity="0.9"/><circle cx="113.3" cy="347.2" r="14.4" fill="#3a5f7a" opacity="0.95"/><rect x="701" y="366" width="4" height="18.2" fill="#191233" opacity="0.9"/><circle cx="703" cy="358.4" r="12.6" fill="#3a5f7a" opacity="0.95"/><rect x="515.4" y="329.6" width="4" height="28.6" fill="#191233" opacity="0.9"/><circle cx="517.4" cy="317.7" r="19.8" fill="#3a5f7a" opacity="0.95"/><rect x="334.5" y="346.4" width="4" height="33.8" fill="#191233" opacity="0.9"/><circle cx="336.5" cy="332.4" r="23.4" fill="#3a5f7a" opacity="0.95"/><rect x="781.4" y="323" width="4" height="39" fill="#191233" opacity="0.9"/><circle cx="783.4" cy="306.8" r="27" fill="#3a5f7a" opacity="0.95"/><rect x="128.6" y="336.1" width="4" height="23.4" fill="#191233" opacity="0.9"/><circle cx="130.6" cy="326.4" r="16.2" fill="#3a5f7a" opacity="0.95"/>
<rect width="800" height="500" fill="url(#vignette)"/>
</svg>